<svg xmlns="http://www.w3.org/2000/svg" xmlns:xlink="http://www.w3.org/1999/xlink" width="500" zoomAndPan="magnify" viewBox="0 0 375 374.999991" height="500" preserveAspectRatio="xMidYMid meet" version="1.0"><defs><g/><clipPath id="bc70842010"><path d="M 1.886719 0 L 373.113281 0 L 373.113281 371.226562 L 1.886719 371.226562 Z M 1.886719 0 " clip-rule="nonzero"/></clipPath><clipPath id="d1ffb358cb"><path d="M 187.5 0 C 84.988281 0 1.886719 83.101562 1.886719 185.613281 C 1.886719 288.125 84.988281 371.226562 187.5 371.226562 C 290.011719 371.226562 373.113281 288.125 373.113281 185.613281 C 373.113281 83.101562 290.011719 0 187.5 0 Z M 187.5 0 " clip-rule="nonzero"/></clipPath><clipPath id="ce6355e1ae"><path d="M 0.886719 0 L 372.113281 0 L 372.113281 371.226562 L 0.886719 371.226562 Z M 0.886719 0 " clip-rule="nonzero"/></clipPath><clipPath id="d7d6b6d55d"><path d="M 186.5 0 C 83.988281 0 0.886719 83.101562 0.886719 185.613281 C 0.886719 288.125 83.988281 371.226562 186.5 371.226562 C 289.011719 371.226562 372.113281 288.125 372.113281 185.613281 C 372.113281 83.101562 289.011719 0 186.5 0 Z M 186.5 0 " clip-rule="nonzero"/></clipPath><clipPath id="2be3c229bb"><rect x="0" width="373" y="0" height="372"/></clipPath><clipPath id="8086fd2576"><rect x="0" width="199" y="0" height="343"/></clipPath></defs><g clip-path="url(#bc70842010)"><g clip-path="url(#d1ffb358cb)"><g transform="matrix(1, 0, 0, 1, 1, 0)"><g clip-path="url(#2be3c229bb)"><g clip-path="url(#ce6355e1ae)"><g clip-path="url(#d7d6b6d55d)"><path fill="#ffffff" d="M 0.886719 0 L 372.113281 0 L 372.113281 371.226562 L 0.886719 371.226562 Z M 0.886719 0 " fill-opacity="1" fill-rule="nonzero"/></g></g></g></g></g></g><g transform="matrix(1, 0, 0, 1, 95, 32)"><g clip-path="url(#8086fd2576)"><g fill="#ff3131" fill-opacity="1"><g transform="translate(0.180946, 285.619222)"><g><path d="M 19.015625 0 L 19.015625 -272.65625 L 75.140625 -272.65625 L 75.140625 -145.53125 L 75.78125 -145.53125 C 90.363281 -160.113281 105.894531 -167.40625 122.375 -167.40625 C 130.40625 -167.40625 138.382812 -166.347656 146.3125 -164.234375 C 154.238281 -162.117188 161.847656 -158.84375 169.140625 -154.40625 C 176.429688 -149.96875 182.347656 -143.675781 186.890625 -135.53125 C 191.441406 -127.394531 193.71875 -117.9375 193.71875 -107.15625 L 193.71875 0 L 137.59375 0 L 137.59375 -91.9375 C 137.59375 -100.394531 134.894531 -107.789062 129.5 -114.125 C 124.113281 -120.46875 117.09375 -123.640625 108.4375 -123.640625 C 99.976562 -123.640625 92.3125 -120.363281 85.4375 -113.8125 C 78.570312 -107.257812 75.140625 -99.96875 75.140625 -91.9375 L 75.140625 0 Z M 19.015625 0 "/></g></g></g></g></g></svg>