<svg xmlns="http://www.w3.org/2000/svg" xmlns:xlink="http://www.w3.org/1999/xlink" width="500" zoomAndPan="magnify" viewBox="0 0 375 374.999991" height="500" preserveAspectRatio="xMidYMid meet" version="1.0"><defs><g/><clipPath id="9ad2869982"><path d="M 49 36 L 322 36 L 322 336 L 49 336 Z M 49 36 " clip-rule="nonzero"/></clipPath><clipPath id="826ac3b9c8"><path d="M 135.21875 405.019531 L -32.359375 145.402344 L 239.859375 -30.304688 L 407.433594 229.308594 Z M 135.21875 405.019531 " clip-rule="nonzero"/></clipPath><clipPath id="b9ad1d0338"><path d="M 135.21875 405.019531 L -32.359375 145.402344 L 239.859375 -30.304688 L 407.433594 229.308594 Z M 135.21875 405.019531 " clip-rule="nonzero"/></clipPath><clipPath id="2254027588"><rect x="0" width="159" y="0" height="296"/></clipPath></defs><g clip-path="url(#9ad2869982)"><g clip-path="url(#826ac3b9c8)"><g clip-path="url(#b9ad1d0338)"><path fill="#000000" d="M 309.707031 204.59375 C 298.300781 218.957031 301.511719 239.460938 299.394531 257.6875 C 295.996094 287.035156 276.214844 313.96875 249.226562 326.042969 C 217.121094 340.34375 180.203125 333.6875 145.023438 333.347656 C 132.152344 333.214844 118.972656 333.941406 106.691406 330.132812 C 84.144531 323.152344 67.886719 300.527344 66.839844 276.953125 C 65.929688 256.464844 75.136719 235.882812 70.71875 215.851562 C 68.867188 207.496094 64.757812 199.828125 61.238281 192.019531 C 51.21875 169.546875 46.285156 143.957031 52.410156 120.121094 C 58.539062 96.285156 77.273438 74.898438 101.433594 70.203125 C 113.234375 67.910156 125.550781 69.558594 137.332031 67.101562 C 160.699219 62.148438 178.644531 41.699219 202.167969 37.554688 C 214.0625 35.460938 226.347656 37.792969 237.726562 41.757812 C 239.582031 42.40625 241.421875 43.101562 243.246094 43.839844 C 245.070312 44.574219 246.875 45.355469 248.660156 46.175781 C 250.445312 46.996094 252.210938 47.859375 253.957031 48.765625 C 255.703125 49.671875 257.425781 50.617188 259.128906 51.601562 C 260.828125 52.589844 262.503906 53.613281 264.15625 54.679688 C 265.8125 55.746094 267.4375 56.847656 269.039062 57.992188 C 270.640625 59.132812 272.210938 60.3125 273.757812 61.527344 C 275.300781 62.742188 276.816406 63.996094 278.304688 65.28125 C 279.789062 66.570312 281.246094 67.890625 282.667969 69.246094 C 284.09375 70.601562 285.484375 71.992188 286.84375 73.414062 C 288.203125 74.835938 289.527344 76.289062 290.816406 77.773438 C 292.105469 79.253906 293.359375 80.769531 294.578125 82.3125 C 295.796875 83.855469 296.980469 85.425781 298.125 87.023438 C 299.269531 88.621094 300.375 90.246094 301.445312 91.898438 C 302.511719 93.550781 303.542969 95.222656 304.53125 96.921875 C 305.519531 98.621094 306.46875 100.34375 307.375 102.089844 C 308.285156 103.832031 309.152344 105.597656 309.976562 107.382812 C 310.800781 109.164062 311.585938 110.96875 312.324219 112.789062 C 313.066406 114.613281 313.761719 116.449219 314.414062 118.304688 C 315.070312 120.160156 315.679688 122.027344 316.242188 123.910156 C 316.808594 125.792969 317.332031 127.691406 317.804688 129.597656 C 318.28125 131.503906 318.714844 133.421875 319.101562 135.351562 C 319.484375 137.277344 319.824219 139.214844 320.121094 141.160156 C 320.414062 143.101562 320.664062 145.054688 320.867188 147.007812 C 321.070312 148.964844 321.226562 150.925781 321.335938 152.886719 C 321.445312 154.851562 321.511719 156.816406 321.527344 158.78125 C 321.546875 160.746094 321.519531 162.714844 321.445312 164.679688 C 321.371094 166.644531 321.25 168.605469 321.082031 170.5625 C 320.914062 172.523438 320.699219 174.476562 320.441406 176.425781 C 320.183594 178.375 319.878906 180.316406 319.527344 182.253906 C 319.175781 184.1875 318.78125 186.113281 318.339844 188.027344 C 317.898438 189.945312 317.410156 191.847656 316.878906 193.742188 " fill-opacity="1" fill-rule="nonzero"/></g></g></g><g transform="matrix(1, 0, 0, 1, 102, 79)"><g clip-path="url(#2254027588)"><g fill="#ffffff" fill-opacity="1"><g transform="translate(0.282508, 227.335109)"><g><path d="M 15.109375 0 L 15.109375 -216.5 L 59.671875 -216.5 L 59.671875 -115.546875 L 60.171875 -115.546875 C 71.742188 -127.128906 84.078125 -132.921875 97.171875 -132.921875 C 103.546875 -132.921875 109.878906 -132.082031 116.171875 -130.40625 C 122.472656 -128.726562 128.519531 -126.125 134.3125 -122.59375 C 140.101562 -119.070312 144.800781 -114.082031 148.40625 -107.625 C 152.007812 -101.164062 153.8125 -93.65625 153.8125 -85.09375 L 153.8125 0 L 109.265625 0 L 109.265625 -73 C 109.265625 -79.71875 107.125 -85.59375 102.84375 -90.625 C 98.5625 -95.664062 92.976562 -98.1875 86.09375 -98.1875 C 79.382812 -98.1875 73.300781 -95.582031 67.84375 -90.375 C 62.394531 -85.175781 59.671875 -79.382812 59.671875 -73 L 59.671875 0 Z M 15.109375 0 "/></g></g></g></g></g></svg>