<svg xmlns="http://www.w3.org/2000/svg" xmlns:xlink="http://www.w3.org/1999/xlink" width="500" zoomAndPan="magnify" viewBox="0 0 375 374.999991" height="500" preserveAspectRatio="xMidYMid meet" version="1.0"><defs><g/><clipPath id="8458728795"><rect x="0" width="258" y="0" height="112"/></clipPath><clipPath id="3252bd505f"><rect x="0" width="234" y="0" height="112"/></clipPath></defs><g transform="matrix(1, 0, 0, 1, 38, 102)"><g clip-path="url(#8458728795)"><g fill="#ffffff" fill-opacity="1"><g transform="translate(1.482855, 80.464084)"><g><path d="M 5.28125 0 L 5.28125 -75.71875 L 20.859375 -75.71875 L 20.859375 -40.40625 L 21.046875 -40.40625 C 25.097656 -44.457031 29.410156 -46.484375 33.984375 -46.484375 C 36.210938 -46.484375 38.425781 -46.191406 40.625 -45.609375 C 42.832031 -45.023438 44.945312 -44.113281 46.96875 -42.875 C 49 -41.644531 50.644531 -39.898438 51.90625 -37.640625 C 53.164062 -35.378906 53.796875 -32.753906 53.796875 -29.765625 L 53.796875 0 L 38.21875 0 L 38.21875 -25.53125 C 38.21875 -27.882812 37.46875 -29.941406 35.96875 -31.703125 C 34.46875 -33.460938 32.515625 -34.34375 30.109375 -34.34375 C 27.765625 -34.34375 25.632812 -33.429688 23.71875 -31.609375 C 21.8125 -29.785156 20.859375 -27.757812 20.859375 -25.53125 L 20.859375 0 Z M 5.28125 0 "/></g></g></g><g fill="#ffffff" fill-opacity="1"><g transform="translate(55.361811, 80.464084)"><g><path d="M 39.53125 -45.171875 L 57.5 -45.171875 L 22.015625 22.890625 L 4.046875 22.890625 L 19.640625 -7.046875 L -1.765625 -45.171875 L 16.203125 -45.171875 L 28.796875 -22.015625 Z M 39.53125 -45.171875 "/></g></g></g><g fill="#ffffff" fill-opacity="1"><g transform="translate(106.775705, 80.464084)"><g><path d="M 51.765625 -39.578125 C 55.992188 -34.972656 58.109375 -29.320312 58.109375 -22.625 C 58.109375 -15.9375 55.992188 -10.269531 51.765625 -5.625 C 47.546875 -0.988281 42.175781 1.328125 35.65625 1.328125 C 29.664062 1.328125 24.734375 -0.550781 20.859375 -4.3125 L 20.859375 22.890625 L 5.28125 22.890625 L 5.28125 -45.171875 L 20.6875 -45.171875 L 20.6875 -40.0625 L 20.859375 -40.0625 C 24.734375 -44.34375 29.664062 -46.484375 35.65625 -46.484375 C 42.175781 -46.484375 47.546875 -44.179688 51.765625 -39.578125 Z M 38.515625 -14.96875 C 40.546875 -16.96875 41.5625 -19.519531 41.5625 -22.625 C 41.5625 -25.738281 40.59375 -28.273438 38.65625 -30.234375 C 36.71875 -32.203125 34.164062 -33.1875 31 -33.1875 C 27.9375 -33.1875 25.421875 -32.1875 23.453125 -30.1875 C 21.492188 -28.195312 20.515625 -25.675781 20.515625 -22.625 C 20.515625 -19.519531 21.523438 -16.96875 23.546875 -14.96875 C 25.578125 -12.96875 28.0625 -11.96875 31 -11.96875 C 33.988281 -11.96875 36.492188 -12.96875 38.515625 -14.96875 Z M 38.515625 -14.96875 "/></g></g></g><g fill="#ffffff" fill-opacity="1"><g transform="translate(162.5915, 80.464084)"><g><path d="M 50.984375 -20.421875 L 18.21875 -20.421875 C 18.21875 -17.253906 19.242188 -14.90625 21.296875 -13.375 C 23.359375 -11.851562 25.59375 -11.09375 28 -11.09375 C 30.519531 -11.09375 32.515625 -11.429688 33.984375 -12.109375 C 35.453125 -12.785156 37.125 -14.117188 39 -16.109375 L 50.28125 -10.484375 C 45.582031 -2.609375 37.773438 1.328125 26.859375 1.328125 C 20.046875 1.328125 14.203125 -1.003906 9.328125 -5.671875 C 4.460938 -10.335938 2.03125 -15.957031 2.03125 -22.53125 C 2.03125 -29.113281 4.460938 -34.75 9.328125 -39.4375 C 14.203125 -44.132812 20.046875 -46.484375 26.859375 -46.484375 C 34.015625 -46.484375 39.835938 -44.414062 44.328125 -40.28125 C 48.816406 -36.144531 51.0625 -30.234375 51.0625 -22.546875 C 51.0625 -21.484375 51.035156 -20.773438 50.984375 -20.421875 Z M 18.671875 -29.0625 L 35.828125 -29.0625 C 35.484375 -31.40625 34.5625 -33.207031 33.0625 -34.46875 C 31.5625 -35.726562 29.640625 -36.359375 27.296875 -36.359375 C 24.710938 -36.359375 22.65625 -35.679688 21.125 -34.328125 C 19.601562 -32.984375 18.785156 -31.226562 18.671875 -29.0625 Z M 18.671875 -29.0625 "/></g></g></g><g fill="#ffffff" fill-opacity="1"><g transform="translate(211.364235, 80.464084)"><g><path d="M 5.28125 0 L 5.28125 -45.171875 L 20.859375 -45.171875 L 20.859375 -38.65625 L 21.046875 -38.65625 C 21.160156 -38.882812 21.347656 -39.175781 21.609375 -39.53125 C 21.878906 -39.882812 22.453125 -40.5 23.328125 -41.375 C 24.210938 -42.257812 25.148438 -43.050781 26.140625 -43.75 C 27.140625 -44.457031 28.429688 -45.085938 30.015625 -45.640625 C 31.609375 -46.203125 33.222656 -46.484375 34.859375 -46.484375 C 36.566406 -46.484375 38.238281 -46.25 39.875 -45.78125 C 41.519531 -45.3125 42.726562 -44.84375 43.5 -44.375 L 44.734375 -43.671875 L 38.21875 -30.46875 C 36.28125 -32.101562 33.578125 -32.921875 30.109375 -32.921875 C 28.234375 -32.921875 26.617188 -32.507812 25.265625 -31.6875 C 23.921875 -30.875 22.96875 -29.878906 22.40625 -28.703125 C 21.851562 -27.523438 21.457031 -26.523438 21.21875 -25.703125 C 20.976562 -24.890625 20.859375 -24.242188 20.859375 -23.765625 L 20.859375 0 Z M 5.28125 0 "/></g></g></g></g></g><g transform="matrix(1, 0, 0, 1, 119, 161)"><g clip-path="url(#3252bd505f)"><g fill="#ffffff" fill-opacity="1"><g transform="translate(0.894075, 80.210987)"><g><path d="M 5.28125 0 L 5.28125 -45.171875 L 20.859375 -45.171875 L 20.859375 -38.65625 L 21.046875 -38.65625 C 21.160156 -38.882812 21.347656 -39.175781 21.609375 -39.53125 C 21.878906 -39.882812 22.453125 -40.5 23.328125 -41.375 C 24.210938 -42.257812 25.148438 -43.050781 26.140625 -43.75 C 27.140625 -44.457031 28.429688 -45.085938 30.015625 -45.640625 C 31.609375 -46.203125 33.222656 -46.484375 34.859375 -46.484375 C 36.566406 -46.484375 38.238281 -46.25 39.875 -45.78125 C 41.519531 -45.3125 42.726562 -44.84375 43.5 -44.375 L 44.734375 -43.671875 L 38.21875 -30.46875 C 36.28125 -32.101562 33.578125 -32.921875 30.109375 -32.921875 C 28.234375 -32.921875 26.617188 -32.507812 25.265625 -31.6875 C 23.921875 -30.875 22.96875 -29.878906 22.40625 -28.703125 C 21.851562 -27.523438 21.457031 -26.523438 21.21875 -25.703125 C 20.976562 -24.890625 20.859375 -24.242188 20.859375 -23.765625 L 20.859375 0 Z M 5.28125 0 "/></g></g></g><g fill="#ffffff" fill-opacity="1"><g transform="translate(40.422807, 80.210987)"><g><path d="M 8.359375 -5.578125 C 4.140625 -10.191406 2.03125 -15.84375 2.03125 -22.53125 C 2.03125 -29.226562 4.140625 -34.894531 8.359375 -39.53125 C 12.585938 -44.164062 17.960938 -46.484375 24.484375 -46.484375 C 30.460938 -46.484375 35.390625 -44.609375 39.265625 -40.859375 L 39.265625 -45.171875 L 54.859375 -45.171875 L 54.859375 0 L 39.4375 0 L 39.4375 -5.109375 L 39.265625 -5.109375 C 35.390625 -0.816406 30.460938 1.328125 24.484375 1.328125 C 17.960938 1.328125 12.585938 -0.972656 8.359375 -5.578125 Z M 21.609375 -30.1875 C 19.585938 -28.195312 18.578125 -25.644531 18.578125 -22.53125 C 18.578125 -19.425781 19.546875 -16.890625 21.484375 -14.921875 C 23.421875 -12.953125 25.972656 -11.96875 29.140625 -11.96875 C 32.191406 -11.96875 34.703125 -12.96875 36.671875 -14.96875 C 38.640625 -16.96875 39.625 -19.492188 39.625 -22.546875 C 39.625 -25.648438 38.609375 -28.195312 36.578125 -30.1875 C 34.554688 -32.1875 32.078125 -33.1875 29.140625 -33.1875 C 26.148438 -33.1875 23.640625 -32.1875 21.609375 -30.1875 Z M 21.609375 -30.1875 "/></g></g></g><g fill="#ffffff" fill-opacity="1"><g transform="translate(96.238602, 80.210987)"><g><path d="M 8.359375 -5.578125 C 4.140625 -10.191406 2.03125 -15.84375 2.03125 -22.53125 C 2.03125 -29.226562 4.140625 -34.894531 8.359375 -39.53125 C 12.585938 -44.164062 17.960938 -46.484375 24.484375 -46.484375 C 30.460938 -46.484375 35.390625 -44.609375 39.265625 -40.859375 L 39.265625 -75.71875 L 54.859375 -75.71875 L 54.859375 0 L 39.4375 0 L 39.4375 -5.109375 L 39.265625 -5.109375 C 35.390625 -0.816406 30.460938 1.328125 24.484375 1.328125 C 17.960938 1.328125 12.585938 -0.972656 8.359375 -5.578125 Z M 21.609375 -30.1875 C 19.585938 -28.195312 18.578125 -25.644531 18.578125 -22.53125 C 18.578125 -19.425781 19.546875 -16.890625 21.484375 -14.921875 C 23.421875 -12.953125 25.972656 -11.96875 29.140625 -11.96875 C 32.191406 -11.96875 34.703125 -12.96875 36.671875 -14.96875 C 38.640625 -16.96875 39.625 -19.492188 39.625 -22.546875 C 39.625 -25.648438 38.609375 -28.195312 36.578125 -30.1875 C 34.554688 -32.1875 32.078125 -33.1875 29.140625 -33.1875 C 26.148438 -33.1875 23.640625 -32.1875 21.609375 -30.1875 Z M 21.609375 -30.1875 "/></g></g></g><g fill="#ffffff" fill-opacity="1"><g transform="translate(152.054397, 80.210987)"><g><path d="M 6.78125 -70.34375 C 8.601562 -72.164062 10.773438 -73.078125 13.296875 -73.078125 C 15.816406 -73.078125 17.988281 -72.164062 19.8125 -70.34375 C 21.632812 -68.53125 22.546875 -66.359375 22.546875 -63.828125 C 22.546875 -61.304688 21.632812 -59.132812 19.8125 -57.3125 C 17.988281 -55.5 15.816406 -54.59375 13.296875 -54.59375 C 10.773438 -54.59375 8.601562 -55.5 6.78125 -57.3125 C 4.957031 -59.132812 4.046875 -61.304688 4.046875 -63.828125 C 4.046875 -66.359375 4.957031 -68.53125 6.78125 -70.34375 Z M 5.28125 -45.171875 L 5.28125 0 L 20.859375 0 L 20.859375 -45.171875 Z M 5.28125 -45.171875 "/></g></g></g><g fill="#ffffff" fill-opacity="1"><g transform="translate(174.327663, 80.210987)"><g><path d="M 9.546875 -5.359375 C 4.535156 -9.828125 2.03125 -15.550781 2.03125 -22.53125 C 2.03125 -29.519531 4.640625 -35.257812 9.859375 -39.75 C 15.085938 -44.238281 21.546875 -46.484375 29.234375 -46.484375 C 36.804688 -46.484375 43.1875 -44.222656 48.375 -39.703125 C 53.570312 -35.179688 56.171875 -29.457031 56.171875 -22.53125 C 56.171875 -15.613281 53.628906 -9.90625 48.546875 -5.40625 C 43.472656 -0.914062 37.035156 1.328125 29.234375 1.328125 C 21.128906 1.328125 14.566406 -0.898438 9.546875 -5.359375 Z M 21.609375 -30.1875 C 19.585938 -28.195312 18.578125 -25.644531 18.578125 -22.53125 C 18.578125 -19.425781 19.546875 -16.890625 21.484375 -14.921875 C 23.421875 -12.953125 25.972656 -11.96875 29.140625 -11.96875 C 32.191406 -11.96875 34.703125 -12.96875 36.671875 -14.96875 C 38.640625 -16.96875 39.625 -19.492188 39.625 -22.546875 C 39.625 -25.648438 38.609375 -28.195312 36.578125 -30.1875 C 34.554688 -32.1875 32.078125 -33.1875 29.140625 -33.1875 C 26.148438 -33.1875 23.640625 -32.1875 21.609375 -30.1875 Z M 21.609375 -30.1875 "/></g></g></g></g></g></svg>